
-: Cover :- 


  
http://desibbrg.org/images/39488563034700070980.jpg


-: Screens :-


    	http://desibbrg.org/images/33130005501978078193.png
    	http://desibbrg.org/images/84906306684194385452.png
    	http://desibbrg.org/images/24441371157510200912.png
    	http://desibbrg.org/images/09788002654453152797.png
    	http://desibbrg.org/images/39016406214561836674.png
    	http://desibbrg.org/images/64465959373421766728.png
    	http://desibbrg.org/images/64421599809080423081.png
    	http://desibbrg.org/images/55051775979670591173.png


-: Info :-  



General

Format                           : AVI
Format/Info                      : Audio Video Interleave
File size                        : 697 MiB
Duration                         : 1h 52mn
Overall bit rate                 : 866 Kbps
Writing application              : VirtualDubMod 1.5.10.2 (build 2540/release)
Writing library                  : VirtualDubMod build 2540/release

Video
ID                               : 0
Format                           : MPEG-4 Visual
Format profile                   : Advanced Simple@L5
Format settings, BVOP            : Yes
Format settings, QPel            : No
Format settings, GMC             : No warppoints
Format settings, Matrix          : Default (H.263)
Codec ID                         : XVID
Codec ID/Hint                    : XviD
Duration                         : 1h 52mn
Bit rate                         : 776 Kbps
Width                            : 624 pixels
Height                           : 288 pixels
Display aspect ratio             : 2.2:1
Frame rate                       : 25.000 fps
Color space                      : YUV
Chroma subsampling               : 4:2:0
Bit depth                        : 8 bits
Scan type                        : Progressive
Bits/(Pixel*Frame)               : 0.173
Stream size                      : 624 MiB (90%)
Writing library                  : XviD 1.2.1 (UTC 2008-12-04)

Audio
ID                               : 1
Format                           : MPEG Audio
Format version                   : Version 1
Format profile                   : Layer 3
Mode                             : Joint stereo
Mode extension                   : MS Stereo
Codec ID                         : 55
Codec ID/Hint                    : MP3
Duration                         : 1h 52mn
Bit rate mode                    : Constant
Bit rate                         : 80.0 Kbps
Channel(s)                       : 2 channels
Sampling rate                    : 32.0 KHz
Stream size                      : 64.4 MiB (9%)
Alignment                        : Aligned on interleaves
Interleave, duration             : 40 ms (1.00 video frame)
Interleave, preload duration     : 504 ms



  
http://www.imdb.com/title/tt2229848/

    Banner
    Viacom 18 Motion Pictures

    Status
    Released

    Release Date
    5 Apr 2013

    Genre
    Comedy

    Star Cast
    Ali Zafar
    Siddharth
    Divyendu Sharma
    Tapsee Pannu
    Rishi Kapoor
    Juhi Chawla
    Anupam Kher
    Sonu Nigam
    Lilette Dubey
    Bharti Achrekar
    Ayaz Khan

    Background Music
    Sandeep Shirodkar

    Choreographers
    Ganesh Acharya

    Costume Designers
    Niharika Khan

    Publicity Pro
    Parag Desai
    Universal Communications

    Censor Details:

    Censor Dates
    4 Mar 2013

    Reels
    Not Available.

    Length in metres
    0.0

Music Director

    Sajid
    Wajid

Color
C
Language
Hindi
Director

    David Dhawan

Singers

    Sonu Nigam
    Ali Zafar
    Shreya Ghoshal
    Mika Singh
    Wajid
    Neuman Pinto

Lyricist

    Jalees Sherwani
    Neelesh Misra
    Kausar Munir

Editor

    Nitin Rokade

Cinematography

    Sanjay F Gupta

Production Designers

    Shailesh Mahadik

Action

    Mahender Verma

Screenplay

    Renuka Kunzru

Dialogue

    Sajid 1
    Farhad

    Line Producer
    Prakash Pange

    Shooting Location(City & Country)
    Goa
    India

    Sound
    Parikshit Lalwani
    Kunal Mehta

    Music Company
    T-Series
